<?xml version="1.0" standalone="no"?>
<!DOCTYPE svg PUBLIC "-//W3C//DTD SVG 20010904//EN"
 "http://www.w3.org/TR/2001/REC-SVG-20010904/DTD/svg10.dtd">
<svg version="1.0" xmlns="http://www.w3.org/2000/svg"
 width="282.000000pt" height="282.000000pt" viewBox="0 0 282.000000 282.000000"
 preserveAspectRatio="xMidYMid meet">
<metadata>
Created by potrace 1.11, written by Peter Selinger 2001-2013
</metadata>
<g transform="translate(0.000000,282.000000) scale(0.100000,-0.100000)"
fill="#000000" stroke="none">
<path d="M862 2800 c-7 -11 -18 -20 -26 -20 -16 0 -56 -34 -56 -48 0 -6 -5
-14 -11 -18 -9 -5 -10 1 -5 21 7 28 -18 70 -35 59 -15 -9 -10 -26 6 -20 13 5
13 0 -2 -27 -9 -17 -16 -35 -15 -39 3 -12 -12 -10 -25 3 -6 6 -9 18 -6 27 4
10 2 13 -5 8 -7 -4 -12 -2 -12 4 0 6 -4 9 -9 6 -5 -4 -12 0 -14 6 -4 9 -6 8
-6 -2 -1 -9 5 -22 11 -28 17 -17 -4 -31 -38 -24 -20 4 -24 0 -24 -20 0 -31
-10 -41 -27 -26 -7 6 -16 8 -20 4 -3 -3 -1 -6 5 -6 26 0 11 -31 -17 -36 -17
-4 -31 -14 -34 -25 -9 -34 -23 -20 -19 19 2 25 0 33 -6 23 -8 -11 -11 -11 -18
0 -4 7 -3 14 4 17 16 5 15 33 0 30 -20 -5 -40 -27 -33 -38 4 -6 1 -9 -6 -8 -6
2 -14 -3 -17 -11 -3 -8 0 -11 7 -7 17 11 13 -6 -9 -39 -18 -28 -20 -28 -20 -7
0 33 -17 27 -47 -19 -27 -41 -45 -40 -23 1 6 12 10 24 7 26 -6 7 -37 -72 -37
-95 0 -10 -6 -24 -14 -30 -11 -10 -17 -8 -26 6 -10 17 -11 17 -6 -2 5 -16 -5
-25 -46 -47 -38 -20 -54 -25 -59 -16 -10 16 -2 28 15 22 10 -4 13 6 12 36 -1
22 -4 40 -8 40 -5 0 -13 0 -19 0 -5 0 -7 -5 -3 -11 4 -7 1 -10 -7 -7 -17 6
-66 -17 -97 -45 -22 -21 -23 -26 -21 -169 2 -83 7 -148 12 -148 5 0 7 7 4 15
-4 8 -1 17 5 21 7 4 6 10 -3 16 -10 7 -8 8 7 3 13 -3 28 0 37 10 9 8 21 15 27
15 6 0 10 6 7 13 -2 6 -11 11 -18 9 -8 -2 -11 0 -6 4 4 4 24 9 45 10 73 5 125
24 109 40 -5 5 -11 4 -15 -2 -10 -15 -48 -23 -63 -13 -11 7 -11 9 2 9 9 0 22
7 29 15 7 9 20 15 29 13 9 -1 32 5 51 15 50 24 108 28 112 9 5 -25 38 14 38
44 0 14 4 22 10 19 6 -3 10 -15 10 -26 0 -21 28 -23 42 -4 5 6 8 5 8 -2 0 -7
5 -13 10 -13 18 0 10 29 -12 44 -12 9 -19 18 -16 21 11 11 58 15 58 5 0 -5 -4
-10 -10 -10 -5 0 -10 -5 -10 -11 0 -6 7 -9 15 -5 8 3 15 1 15 -4 0 -6 -4 -10
-10 -10 -22 0 -8 -15 15 -16 20 -2 25 3 25 22 0 13 5 24 10 24 6 0 10 -5 10
-11 0 -5 4 -8 9 -5 5 4 12 0 14 -6 3 -7 6 -3 6 10 1 12 5 22 11 22 5 0 7 -6 4
-14 -3 -9 4 -15 21 -18 28 -6 44 7 20 16 -13 5 -13 9 -3 25 8 13 16 17 24 11
6 -6 13 -8 15 -5 5 4 51 10 157 19 32 3 60 13 73 25 18 17 48 24 139 33 19 2
26 10 28 32 3 28 5 28 51 24 46 -5 62 2 74 32 4 11 6 11 6 2 1 -9 16 -4 46 14
28 16 45 21 45 14 0 -9 4 -9 13 -2 6 5 22 13 35 16 16 6 22 3 22 -8 0 -13 4
-12 20 4 22 22 25 38 9 60 -9 13 -10 13 -6 -2 3 -9 0 -18 -6 -21 -7 -2 -13 5
-13 17 -2 23 30 34 41 15 4 -5 11 -7 16 -4 5 4 9 1 9 -4 0 -14 47 -14 55 -1 5
8 11 8 19 1 7 -6 17 -7 21 -3 5 4 5 2 1 -5 -12 -21 12 -24 27 -3 13 19 15 20
21 3 6 -15 8 -15 16 -3 7 10 10 11 10 3 0 -7 7 -13 15 -13 8 0 15 4 15 9 0 5
21 3 47 -3 44 -11 49 -11 65 8 10 13 17 16 18 8 0 -10 5 -10 21 -2 11 7 27 9
35 6 9 -3 14 1 14 12 0 13 2 14 9 3 6 -8 14 -10 22 -5 27 16 59 16 59 -1 0
-13 6 -15 33 -10 17 4 37 11 42 15 6 4 19 4 30 -1 27 -10 43 -11 27 0 -11 7
-11 9 2 14 12 5 16 0 17 -16 1 -19 2 -19 6 -3 4 15 7 16 14 5 7 -11 9 -9 9 6
0 17 2 17 10 5 6 -9 10 -11 10 -3 0 7 6 10 14 7 8 -3 17 -1 20 5 9 14 79 4 92
-14 9 -12 13 -12 32 1 13 9 22 11 22 5 0 -6 8 -11 18 -11 14 0 15 2 2 10 -8 5
-10 10 -5 10 6 0 16 -5 23 -12 9 -9 12 -9 13 0 1 7 2 17 3 22 0 6 6 14 12 18
6 4 13 15 17 25 4 9 12 16 18 15 6 -2 14 3 16 10 4 10 -21 12 -117 11 -111 -1
-123 -3 -127 -20 -3 -10 -13 -19 -22 -18 -10 0 -11 2 -3 6 6 2 12 11 12 19 0
11 -13 13 -57 10 -32 -2 -66 -7 -75 -11 -11 -4 -18 -3 -18 5 0 8 -20 10 -64 8
-36 -1 -62 -6 -60 -10 2 -3 -1 -10 -7 -14 -6 -4 -16 1 -21 10 -13 24 -28 19
-28 -9 0 -14 -5 -25 -11 -25 -7 0 -9 10 -5 25 5 20 3 25 -13 25 -11 0 -27 -7
-35 -16 -14 -14 -16 -14 -16 0 0 14 -42 16 -367 15 -359 0 -433 -6 -433 -33 0
-6 -5 -5 -11 1 -6 6 -17 9 -24 6 -7 -2 -15 1 -18 9 -2 7 -3 5 -1 -5 1 -9 -6
-27 -16 -40 -19 -22 -19 -22 -13 21 6 47 -12 59 -35 22z m148 -20 c0 -5 -2
-10 -4 -10 -3 0 -8 5 -11 10 -3 6 -1 10 4 10 6 0 11 -4 11 -10z m1300 -45 c-7
-8 -16 -15 -21 -15 -5 0 -6 7 -3 15 4 8 13 15 21 15 13 0 13 -3 3 -15z m-1716
-150 c3 -9 0 -15 -8 -15 -7 0 -13 7 -13 15 0 8 4 15 8 15 4 0 9 -7 13 -15z
m-202 -79 c7 4 8 2 4 -4 -8 -14 -36 -16 -36 -4 0 14 14 24 18 13 2 -6 9 -8 14
-5z m199 -76 c5 0 9 -4 9 -9 0 -5 -9 -7 -20 -4 -23 6 -22 5 -13 30 7 17 8 17
11 1 2 -10 8 -18 13 -18z m-517 -1 c-8 -14 -24 -10 -24 6 0 9 6 12 15 9 8 -4
12 -10 9 -15z m468 -21 c-7 -7 -10 -5 -7 8 5 29 6 30 12 16 3 -8 1 -18 -5 -24z
m-464 -68 c-14 -21 -38 -27 -38 -9 0 5 5 7 10 4 6 -3 10 1 10 9 0 9 7 16 15
16 13 0 13 -3 3 -20z m37 -70 c-3 -5 -14 -10 -23 -9 -14 0 -13 2 3 9 27 11 27
11 20 0z"/>
<path d="M510 2719 c0 -5 5 -7 10 -4 6 3 10 8 10 11 0 2 -4 4 -10 4 -5 0 -10
-5 -10 -11z"/>
<path d="M2746 2648 c-15 -16 -47 -33 -69 -39 -47 -13 -67 -30 -67 -58 0 -15
7 -21 23 -22 12 -1 4 -5 -18 -8 -35 -5 -40 -9 -38 -31 1 -14 0 -19 -3 -12 -9
19 -34 14 -34 -6 0 -19 -18 -42 -33 -42 -4 0 -6 4 -2 9 3 5 0 13 -6 17 -7 4
-9 3 -6 -3 4 -6 -5 -21 -20 -34 -21 -20 -25 -21 -20 -6 9 25 -1 40 -17 24 -8
-6 -12 -15 -10 -19 2 -3 -5 -4 -16 -1 -15 4 -20 0 -20 -16 0 -11 -4 -21 -10
-21 -5 0 -7 -6 -4 -14 3 -8 -4 -16 -20 -20 -14 -3 -26 -11 -26 -16 0 -5 -7 -7
-15 -4 -8 4 -15 1 -15 -6 0 -6 -5 -10 -12 -8 -6 2 -21 -6 -34 -19 -24 -24 -64
-31 -64 -12 0 8 -4 8 -13 0 -10 -8 -17 -7 -27 2 -10 10 -12 9 -7 -5 4 -10 4
-25 1 -33 -5 -13 -11 -11 -30 10 -17 18 -30 24 -44 20 -11 -4 -20 -10 -20 -15
0 -5 -3 -17 -6 -27 -6 -15 -4 -16 7 -5 31 29 38 9 9 -28 -15 -18 -18 -20 -13
-6 4 13 3 17 -5 12 -7 -4 -12 -2 -12 6 0 9 -3 9 -10 -2 -9 -13 -10 -13 -11 0
0 8 -7 1 -15 -17 -9 -22 -19 -31 -29 -27 -8 4 -15 10 -15 14 0 15 -50 -15 -56
-34 -3 -10 -9 -14 -13 -9 -10 16 -41 24 -41 10 0 -8 -4 -7 -10 3 -9 13 -11 13
-20 0 -9 -13 -11 -13 -19 0 -6 9 -6 19 -1 26 6 6 7 14 3 17 -9 9 -23 9 -22 0
3 -19 -2 -33 -12 -33 -5 0 -7 5 -4 10 3 6 2 10 -3 10 -6 0 -12 -7 -16 -15 -4
-10 1 -15 15 -15 11 0 17 -4 14 -10 -3 -5 -1 -10 5 -10 6 0 8 -5 5 -10 -4 -6
-10 -8 -15 -5 -4 3 -10 -2 -14 -10 -13 -34 -43 -11 -37 28 0 4 -3 7 -7 7 -5 0
-7 13 -4 29 2 16 -1 32 -7 35 -6 4 -11 0 -11 -10 0 -16 -1 -16 -14 1 -8 11
-12 24 -9 29 4 5 1 6 -5 2 -12 -7 -12 -46 1 -46 4 0 5 -5 1 -11 -4 -8 -9 -7
-14 2 -15 23 -40 18 -55 -11 -8 -15 -11 -30 -8 -34 4 -3 -1 -6 -11 -6 -9 0
-14 -4 -11 -10 3 -5 1 -10 -5 -10 -6 0 -10 -6 -9 -12 5 -29 -24 -68 -113 -153
-124 -119 -189 -150 -363 -175 -109 -16 -355 -13 -490 6 -66 9 -128 17 -137
17 -10 1 -18 4 -18 7 0 3 -18 4 -40 2 -28 -3 -47 1 -58 12 -16 14 -19 14 -30
-4 -9 -15 -17 -17 -41 -10 -21 6 -35 4 -50 -7 -12 -8 -30 -15 -41 -16 -11 -1
-20 -7 -20 -14 0 -16 17 -26 23 -13 3 6 4 5 3 -2 -3 -14 -48 -19 -56 -7 -3 5
-10 5 -16 1 -14 -10 -54 -94 -49 -103 3 -4 22 -6 42 -4 21 1 40 -1 43 -6 3 -4
37 -10 76 -13 76 -6 104 -13 104 -27 0 -5 5 -9 11 -9 6 0 9 7 6 14 -4 10 -1
13 9 9 7 -3 14 -9 14 -14 0 -5 29 -9 64 -8 35 1 69 -2 75 -5 6 -4 11 -4 11 1
0 4 31 9 69 11 37 1 90 7 117 12 27 6 83 16 124 24 114 22 230 53 322 87 171
63 221 80 232 76 10 -3 -134 -77 -151 -77 -4 0 -36 -12 -71 -26 -85 -34 -244
-77 -357 -98 -153 -27 -267 -45 -335 -51 -134 -12 -124 -7 -137 -83 -24 -139
-43 -207 -62 -223 -18 -14 -18 -16 -1 -40 15 -21 34 -104 56 -244 7 -44 48
-197 64 -241 11 -28 70 -95 70 -79 0 5 7 -1 16 -14 11 -15 23 -21 35 -18 11 3
22 1 25 -5 3 -5 12 -7 20 -4 8 3 14 1 14 -4 0 -11 54 -23 107 -22 24 1 43 -2
43 -6 0 -4 14 -7 30 -7 24 0 30 4 30 23 0 12 -1 22 -3 22 -2 0 -28 4 -58 10
-30 5 -72 11 -94 14 -126 14 -189 93 -211 261 -3 28 -10 73 -14 100 -14 86 -7
377 9 402 15 21 59 48 74 45 4 -1 7 1 7 5 0 5 13 9 28 10 15 1 41 7 57 14 17
7 38 14 48 16 10 1 43 12 75 23 31 11 71 23 87 26 17 3 32 9 35 13 8 12 60 19
66 10 9 -15 24 -10 24 7 0 12 6 15 25 10 15 -4 25 -2 25 5 0 6 6 9 13 6 6 -2
23 6 37 18 14 13 34 25 45 27 11 1 26 8 33 15 15 14 45 6 35 -10 -4 -6 -1 -7
6 -3 7 5 10 10 7 13 -8 8 37 41 50 36 6 -2 17 3 24 12 7 8 17 15 23 15 15 0
113 45 237 109 216 112 380 191 392 191 8 0 23 6 34 14 27 19 195 89 269 111
33 10 65 22 70 26 11 8 104 30 245 57 65 13 103 16 120 10 32 -12 77 -1 61 15
-6 6 -11 16 -11 23 0 13 149 94 174 94 14 0 16 19 16 150 0 141 -1 150 -22
172 l-23 23 -29 -27z m-89 -90 c-3 -8 -6 -5 -6 6 -1 11 2 17 5 13 3 -3 4 -12
1 -19z m-7 -52 c0 -2 -7 -9 -15 -16 -13 -11 -14 -10 -9 4 5 14 24 23 24 12z
m-3 -98 c-3 -8 -6 -5 -6 6 -1 11 2 17 5 13 3 -3 4 -12 1 -19z m-232 -18 c3 -5
1 -10 -4 -10 -6 0 -11 5 -11 10 0 6 2 10 4 10 3 0 8 -4 11 -10z m-299 -161
c19 -22 19 -22 -3 -8 -13 8 -23 17 -23 21 0 12 6 9 26 -13z m-453 -90 c-8 -8
-13 -7 -18 2 -5 8 -4 10 3 5 7 -4 12 -2 12 5 0 7 3 9 7 6 4 -4 2 -12 -4 -18z
m271 5 c22 -8 20 -21 -4 -27 -22 -6 -35 7 -25 23 7 12 8 12 29 4z m72 -9 c13
-13 13 -15 1 -15 -8 0 -17 7 -21 15 -3 8 -3 15 0 15 3 0 12 -7 20 -15z m-181
-25 c10 -11 15 -20 12 -20 -4 0 -16 9 -27 20 -11 11 -16 20 -12 20 5 0 17 -9
27 -20z m-55 -24 c0 -3 -4 -8 -10 -11 -5 -3 -10 -1 -10 4 0 6 5 11 10 11 6 0
10 -2 10 -4z m-100 -16 c0 -5 -4 -10 -10 -10 -5 0 -10 5 -10 10 0 6 5 10 10
10 6 0 10 -4 10 -10z m3 -80 c-3 -3 -14 6 -24 19 -15 19 -17 26 -7 32 8 5 16
-1 24 -19 6 -15 9 -29 7 -32z"/>
<path d="M2700 2651 c-18 -5 -21 -9 -11 -15 8 -5 19 -2 29 8 9 9 14 16 12 15
-3 -1 -16 -4 -30 -8z"/>
<path d="M695 2380 c-3 -6 1 -7 9 -4 18 7 21 14 7 14 -6 0 -13 -4 -16 -10z"/>
<path d="M2200 2289 c0 -5 5 -7 10 -4 6 3 10 8 10 11 0 2 -4 4 -10 4 -5 0 -10
-5 -10 -11z"/>
<path d="M254 2265 c-10 -8 -14 -15 -8 -15 5 0 19 7 30 15 10 8 14 15 8 15 -5
0 -19 -7 -30 -15z"/>
<path d="M192 2214 c-7 -8 -8 -14 -3 -14 10 0 25 19 20 25 -2 1 -10 -3 -17
-11z"/>
<path d="M2769 2211 c-19 -9 -40 -16 -47 -13 -7 2 -12 0 -12 -5 0 -15 -70 -39
-165 -58 -217 -42 -393 -94 -497 -146 -409 -205 -768 -408 -931 -527 -28 -21
-108 -74 -177 -117 -220 -138 -240 -157 -224 -199 9 -23 16 -21 70 29 27 24
54 43 61 40 6 -2 18 6 26 19 25 38 603 410 697 449 19 8 52 25 72 39 32 22
174 94 423 213 90 43 289 111 365 125 30 5 94 14 142 20 81 10 134 27 216 67
26 13 32 22 32 50 0 38 -2 39 -51 14z"/>
<path d="M1545 2200 c-3 -5 -1 -10 4 -10 6 0 11 5 11 10 0 6 -2 10 -4 10 -3 0
-8 -4 -11 -10z"/>
<path d="M1720 2119 c0 -11 4 -18 10 -14 5 3 7 12 3 20 -7 21 -13 19 -13 -6z"/>
<path d="M2763 2056 c-28 -12 -54 -24 -57 -27 -3 -2 -14 -52 -26 -109 -26
-127 -72 -292 -99 -355 -7 -16 -14 -37 -15 -45 -1 -8 -10 -32 -20 -53 -10 -21
-16 -41 -12 -44 3 -3 1 -12 -6 -20 -8 -11 -8 -17 2 -26 10 -10 12 -9 8 3 -4
10 3 20 18 27 19 9 24 8 27 -6 3 -10 5 -6 6 8 1 19 4 22 12 14 6 -6 19 -9 28
-6 10 3 8 0 -4 -8 -11 -7 -23 -17 -26 -22 -4 -5 -14 -7 -23 -4 -9 4 -16 2 -16
-4 0 -7 14 -10 35 -7 19 2 37 -1 39 -7 2 -5 5 -2 5 8 1 9 6 17 12 17 7 0 9
-10 5 -26 -6 -21 -4 -25 8 -21 9 4 16 2 16 -4 0 -6 5 -7 12 -3 8 5 9 2 5 -9
-3 -10 -2 -17 3 -17 6 0 10 5 10 11 0 5 5 7 11 3 8 -4 8 -9 0 -17 -18 -18 -13
-37 9 -37 12 0 24 -9 29 -22 5 -15 10 -18 15 -9 4 6 2 19 -5 27 -6 8 -8 18 -4
22 4 4 10 1 12 -5 3 -7 13 -13 24 -13 18 0 19 14 18 405 0 223 -1 405 -2 404
-1 0 -25 -11 -54 -23z m-149 -551 c-4 -8 -8 -15 -10 -15 -2 0 -4 7 -4 15 0 8
4 15 10 15 5 0 7 -7 4 -15z m4 -56 c-3 -8 -7 -3 -11 10 -4 17 -3 21 5 13 5 -5
8 -16 6 -23z m-20 -4 c-10 -11 -48 -14 -48 -4 0 5 12 9 27 9 14 0 24 -2 21 -5z
m90 -35 c-2 -19 3 -30 12 -25 6 4 7 -1 3 -11 -5 -15 -7 -14 -16 2 -6 11 -17
24 -24 29 -12 9 -10 11 6 11 11 0 19 -3 19 -6z m47 -61 c11 -17 -1 -21 -15 -4
-8 9 -8 15 -2 15 6 0 14 -5 17 -11z"/>
<path d="M2548 2043 c7 -3 16 -2 19 1 4 3 -2 6 -13 5 -11 0 -14 -3 -6 -6z"/>
<path d="M2589 2031 c10 -18 6 -65 -13 -171 -2 -8 -6 -33 -10 -55 -11 -62 -49
-209 -56 -215 -3 -3 -12 -25 -19 -50 -7 -25 -22 -62 -32 -83 -10 -22 -19 -43
-19 -47 0 -31 -125 -264 -161 -301 -9 -9 -21 -23 -25 -31 -20 -32 -258 -226
-369 -300 -214 -143 -563 -298 -782 -348 -52 -12 -107 -7 -131 13 -9 7 -11 6
-7 -5 8 -20 48 -38 85 -38 47 0 128 19 238 57 57 19 106 32 110 29 3 -3 -1 -6
-8 -6 -7 0 -11 -2 -8 -5 6 -6 47 10 158 62 117 53 139 66 133 76 -3 4 2 7 10
5 15 -3 177 70 188 85 3 5 9 2 12 -7 3 -8 1 -17 -6 -19 -9 -3 -8 -8 2 -20 7
-10 10 -17 6 -17 -4 0 -2 -6 4 -14 9 -11 8 -15 -4 -20 -11 -4 -14 -2 -9 7 5 9
4 9 -6 0 -20 -18 -8 -32 19 -22 18 7 22 15 19 34 -4 17 -1 25 8 25 8 0 11 6 7
16 -5 13 -7 13 -14 2 -6 -8 -9 -9 -9 -1 0 6 -3 18 -6 27 -3 9 -1 16 6 16 6 0
9 -4 6 -9 -3 -5 1 -12 10 -15 26 -10 34 -7 34 14 0 13 10 22 36 29 20 5 42 18
50 28 13 17 14 17 8 1 -3 -10 -1 -18 5 -18 6 0 11 5 11 10 0 6 7 10 15 10 20
0 19 -26 0 -34 -11 -4 -15 -17 -14 -44 2 -21 -1 -43 -5 -50 -4 -7 -4 -11 1
-10 5 2 19 -7 33 -20 13 -12 19 -22 13 -22 -7 0 -19 7 -27 16 -9 8 -16 11 -16
5 0 -5 5 -13 10 -16 6 -4 8 -10 5 -15 -3 -4 5 -6 17 -3 22 4 23 4 4 -11 -11
-9 -14 -16 -8 -16 7 0 12 -7 12 -16 0 -8 4 -13 9 -10 5 4 13 -5 18 -19 8 -25
8 -25 21 -4 8 12 9 18 3 14 -6 -3 -11 1 -11 9 0 18 16 21 25 6 9 -14 21 -12
39 6 11 10 24 13 38 8 20 -6 21 -5 9 9 -12 15 -10 18 10 26 13 5 18 10 10 10
-11 1 -10 6 5 22 16 17 16 22 4 29 -11 7 -8 10 13 10 19 0 26 -4 21 -12 -4 -7
-3 -8 4 -4 7 4 12 2 12 -3 0 -6 5 -11 11 -11 7 0 6 8 -4 22 -8 13 -19 22 -24
21 -5 -1 -10 7 -10 18 -1 10 1 19 5 19 12 -1 39 -24 45 -40 4 -12 6 -12 6 2 1
16 4 16 36 -2 42 -24 51 -24 88 -5 15 8 25 10 22 5 -4 -6 -1 -10 4 -10 6 0 11
5 11 10 0 7 6 7 18 1 28 -15 87 1 87 24 0 10 6 20 14 23 10 3 12 0 8 -12 -4
-9 -3 -16 2 -16 5 0 11 10 15 22 5 22 6 22 19 4 13 -18 14 -18 14 0 0 11 -5
26 -11 34 -9 13 -8 13 4 3 10 -8 21 -9 30 -3 13 8 13 10 -1 10 -9 0 -19 9 -22
20 -3 13 0 20 10 20 11 0 13 5 8 18 -5 9 -9 27 -10 39 -1 13 -11 31 -23 41
-26 23 -27 26 -7 45 13 13 12 17 -2 29 -9 7 -14 8 -10 2 4 -7 -3 -11 -19 -11
-20 0 -24 4 -22 21 3 20 -19 56 -34 56 -5 0 -8 -8 -8 -18 0 -22 -27 -25 -34
-5 -3 8 -10 11 -16 8 -5 -3 -10 1 -10 9 0 9 7 16 15 16 9 0 12 6 9 15 -4 9 0
15 7 15 8 0 6 5 -6 13 -25 15 -37 16 -53 4 -8 -7 -19 -4 -32 8 -11 10 -20 13
-20 7 0 -6 -10 -12 -22 -14 -14 -2 -22 -9 -20 -19 1 -9 -13 -24 -35 -36 -21
-11 -37 -25 -36 -31 3 -14 -35 -10 -63 5 -12 7 -25 9 -29 5 -5 -4 -5 -2 -2 4
4 6 18 10 32 9 23 -3 27 1 24 21 0 4 3 10 8 13 5 3 24 29 43 56 19 28 37 52
41 55 5 3 8 14 7 25 -1 11 26 77 60 147 116 240 181 471 177 628 -2 80 -3 85
-24 88 -20 3 -21 1 -12 -17z m-49 -965 c0 -11 -19 -15 -25 -6 -3 5 1 10 9 10
9 0 16 -2 16 -4z m-263 -137 c-11 -20 -30 -42 -44 -48 -14 -7 -26 -23 -29 -41
-4 -16 -13 -30 -20 -30 -9 0 -14 -11 -14 -27 l-1 -28 -20 24 c-14 17 -17 27
-9 35 13 13 13 36 0 36 -5 0 -6 -7 -3 -17 5 -12 3 -14 -7 -8 -10 6 -12 3 -8
-11 4 -17 1 -19 -24 -16 -20 3 -28 9 -24 19 3 8 1 11 -4 8 -6 -3 -10 -1 -10 4
0 17 21 13 35 -6 11 -15 12 -14 8 12 -3 17 -10 33 -15 36 -4 3 3 16 18 30 24
22 27 23 38 7 10 -13 15 -15 25 -5 9 9 13 7 17 -10 4 -13 11 -20 20 -16 7 3
13 8 12 11 -5 27 35 78 60 78 18 0 18 -1 -1 -37z m-100 24 c-4 -3 -2 -11 3
-18 8 -10 -9 -13 -40 -6 -3 1 4 8 14 16 20 15 35 21 23 8z m363 -39 c0 -8 -19
-13 -24 -6 -3 5 1 9 9 9 8 0 15 -2 15 -3z m-50 -24 c0 -5 -7 -7 -15 -4 -8 4
-15 8 -15 10 0 2 7 4 15 4 8 0 15 -4 15 -10z m-80 -65 c0 -7 -10 -12 -25 -11
-30 1 -29 0 -9 20 17 17 34 13 34 -9z m-54 -62 c-10 -10 -19 5 -10 18 6 11 8
11 12 0 2 -7 1 -15 -2 -18z m91 -69 c-3 -3 -12 -4 -19 -1 -8 3 -5 6 6 6 11 1
17 -2 13 -5z m-330 -24 c-1 -22 -17 -28 -17 -7 0 12 9 27 16 27 2 0 2 -9 1
-20z m486 -7 c-7 -2 -19 -2 -25 0 -7 3 -2 5 12 5 14 0 19 -2 13 -5z"/>
<path d="M2486 1979 c-21 -22 -36 -48 -34 -57 2 -9 -2 -21 -9 -27 -11 -9 -16
-31 -22 -92 0 -7 -7 -13 -15 -13 -9 0 -12 7 -9 20 10 39 -24 21 -43 -22 -10
-24 -24 -47 -31 -51 -8 -5 -11 -12 -8 -16 2 -5 -2 -14 -10 -21 -8 -7 -15 -19
-15 -27 0 -7 -6 -16 -14 -19 -8 -3 -12 -13 -9 -22 4 -14 3 -14 -5 -3 -9 12
-12 12 -24 0 -8 -8 -27 -23 -42 -34 -26 -19 -79 -86 -118 -147 -12 -19 -14
-28 -5 -31 9 -3 9 -9 0 -24 -10 -18 -9 -20 10 -18 12 1 29 3 37 4 11 1 12 3 2
9 -9 6 -6 14 13 30 14 12 25 28 25 34 0 10 2 10 8 1 11 -18 92 4 92 26 0 13 2
13 9 2 10 -16 -6 -71 -21 -71 -6 0 -7 -7 -4 -16 4 -10 -4 -30 -19 -50 -14 -18
-25 -39 -25 -46 0 -8 -6 -20 -12 -27 -11 -11 -10 -13 5 -7 10 3 24 6 31 6 9 0
12 10 10 28 -2 15 -1 22 2 15 4 -10 8 -10 19 0 7 7 11 15 8 20 -2 4 1 7 6 7 6
0 11 5 11 11 0 5 -4 7 -10 4 -5 -3 -10 1 -10 10 0 11 6 15 18 11 17 -6 34 15
84 102 113 197 119 211 158 368 16 65 24 174 12 174 -5 0 -26 -18 -46 -41z"/>
<path d="M2061 1883 c0 -10 4 -27 9 -38 7 -16 9 -13 9 18 1 20 -3 37 -9 37 -5
0 -10 -8 -9 -17z"/>
<path d="M1966 1851 c-5 -8 -4 -16 4 -21 6 -4 11 -16 10 -26 -4 -38 0 -65 10
-59 14 8 12 54 -4 90 -9 21 -14 26 -20 16z"/>
<path d="M1882 1811 c-14 -8 -12 -20 18 -161 10 -51 23 -14 17 47 -10 87 -21
123 -35 114z"/>
<path d="M1717 1726 c-4 -9 1 -38 9 -67 9 -28 13 -53 11 -56 -3 -2 1 -19 8
-36 14 -34 15 -38 15 -62 0 -9 6 -12 15 -9 21 9 19 55 -9 153 -22 83 -38 107
-49 77z"/>
<path d="M1614 1672 c-16 -14 -19 -23 -12 -47 4 -17 10 -39 13 -50 23 -102 41
-153 57 -170 19 -20 20 -20 15 35 -6 66 -22 149 -39 207 -13 41 -14 41 -34 25z"/>
<path d="M1445 1572 c-19 -12 -16 -67 6 -138 12 -38 27 -103 34 -144 12 -69
13 -71 14 -28 1 26 6 50 11 53 11 7 9 28 -9 140 -13 74 -29 125 -40 125 -3 0
-11 -4 -16 -8z"/>
<path d="M1322 1497 c-13 -15 -8 -82 7 -101 6 -7 9 -15 6 -18 -3 -2 1 -25 9
-51 7 -25 12 -48 9 -51 -11 -10 9 -45 23 -39 14 5 20 53 7 53 -5 0 -9 21 -10
48 -3 64 -24 172 -33 172 -4 0 -12 -6 -18 -13z"/>
<path d="M2045 1400 c3 -5 8 -10 11 -10 2 0 4 5 4 10 0 6 -5 10 -11 10 -5 0
-7 -4 -4 -10z"/>
<path d="M1185 1380 c-3 -5 1 -10 10 -10 9 0 13 5 10 10 -3 6 -8 10 -10 10 -2
0 -7 -4 -10 -10z"/>
<path d="M75 1360 c-3 -5 -1 -10 4 -10 6 0 11 5 11 10 0 6 -2 10 -4 10 -3 0
-8 -4 -11 -10z"/>
<path d="M2541 1344 c0 -11 3 -14 6 -6 3 7 2 16 -1 19 -3 4 -6 -2 -5 -13z"/>
<path d="M1189 1341 c7 -5 11 -13 7 -19 -3 -5 0 -12 7 -15 10 -4 13 2 9 19 -2
14 -11 24 -21 24 -13 0 -13 -2 -2 -9z"/>
<path d="M2488 1311 c-3 -23 -1 -27 14 -23 10 2 21 8 24 13 3 5 -3 6 -12 2
-13 -5 -16 -3 -11 10 3 9 2 19 -2 22 -5 2 -11 -8 -13 -24z"/>
<path d="M2537 1300 c-3 -13 0 -20 9 -20 8 0 14 -5 14 -11 0 -5 4 -8 9 -4 16
9 9 43 -8 37 -9 -3 -12 -1 -7 6 4 7 3 12 -2 12 -5 0 -12 -9 -15 -20z"/>
<path d="M939 1233 c-33 -40 -40 -56 -10 -24 17 18 31 35 31 37 0 8 -7 3 -21
-13z"/>
<path d="M2195 1240 c-3 -5 -1 -10 4 -10 6 0 11 5 11 10 0 6 -2 10 -4 10 -3 0
-8 -4 -11 -10z"/>
<path d="M2485 1240 c-3 -5 -1 -10 4 -10 6 0 11 5 11 10 0 6 -2 10 -4 10 -3 0
-8 -4 -11 -10z"/>
<path d="M2805 1230 c3 -5 8 -10 11 -10 2 0 4 5 4 10 0 6 -5 10 -11 10 -5 0
-7 -4 -4 -10z"/>
<path d="M2453 1193 c-6 -19 -6 -36 -1 -39 4 -3 5 -10 2 -16 -4 -7 -2 -8 4 -4
7 4 9 18 6 32 -4 14 -2 24 5 24 6 0 11 -6 11 -14 0 -8 7 -17 16 -20 28 -11 27
1 -3 28 -22 21 -24 26 -10 26 9 0 17 -4 17 -10 0 -5 5 -10 10 -10 23 0 7 28
-18 32 -25 3 -30 0 -39 -29z"/>
<path d="M1220 1204 c0 -8 5 -12 10 -9 6 3 10 10 10 16 0 5 -4 9 -10 9 -5 0
-10 -7 -10 -16z"/>
<path d="M2580 1200 c0 -5 5 -10 11 -10 5 0 7 5 4 10 -3 6 -8 10 -11 10 -2 0
-4 -4 -4 -10z"/>
<path d="M851 1174 c0 -11 3 -14 6 -6 3 7 2 16 -1 19 -3 4 -6 -2 -5 -13z"/>
<path d="M2538 1183 c-15 -4 -15 -6 3 -24 24 -24 24 -24 26 1 2 23 -5 28 -29
23z"/>
<path d="M1225 1163 c4 -10 7 -28 6 -40 0 -13 4 -23 9 -23 6 0 10 18 10 40 0
30 -4 40 -16 40 -12 0 -14 -5 -9 -17z"/>
<path d="M689 1135 c0 -5 -3 -19 -5 -30 -8 -34 -4 -138 6 -150 6 -7 7 -14 4
-18 -3 -3 8 -13 25 -21 40 -21 50 -60 76 -301 6 -53 45 -143 79 -183 12 -13
39 -33 61 -44 33 -17 51 -20 115 -15 70 6 156 24 148 32 -2 2 -35 -3 -73 -11
-95 -20 -150 -12 -190 30 -29 31 -69 127 -80 191 -32 198 -45 248 -71 282 -15
20 -35 38 -44 40 -20 5 -30 48 -30 128 0 28 -5 57 -10 65 -5 8 -10 11 -11 5z"/>
<path d="M797 1123 c-4 -3 -7 -20 -7 -36 0 -38 6 -32 13 11 5 33 5 36 -6 25z"/>
<path d="M861 1099 c-6 -18 -10 -84 -9 -148 l1 -116 7 125 c4 69 10 135 14
148 11 34 -1 26 -13 -9z"/>
<path d="M2530 1124 c0 -6 7 -19 15 -30 8 -10 14 -14 14 -9 0 6 -6 19 -14 29
-8 11 -15 15 -15 10z"/>
<path d="M2046 1076 c3 -9 1 -16 -5 -16 -6 0 -11 -4 -11 -10 0 -5 7 -7 15 -4
17 7 20 30 5 39 -6 3 -7 -1 -4 -9z"/>
<path d="M1975 1040 c-3 -5 1 -10 10 -10 9 0 13 -5 10 -10 -4 -6 -16 -8 -28
-5 -12 2 -17 2 -11 -1 16 -7 5 -44 -12 -44 -8 0 -14 -4 -14 -10 0 -19 16 -10
52 28 29 30 33 40 22 50 -16 15 -21 15 -29 2z"/>
<path d="M2610 1039 c0 -5 5 -7 10 -4 6 3 10 8 10 11 0 2 -4 4 -10 4 -5 0 -10
-5 -10 -11z"/>
<path d="M2338 1033 c7 -3 16 -2 19 1 4 3 -2 6 -13 5 -11 0 -14 -3 -6 -6z"/>
<path d="M1930 989 c0 -5 -4 -8 -9 -5 -5 3 -27 -12 -49 -34 -22 -22 -44 -40
-50 -40 -5 0 -12 -7 -15 -14 -3 -8 -21 -23 -38 -32 -18 -9 -59 -38 -91 -65
-33 -27 -64 -49 -69 -49 -6 0 -29 -13 -52 -28 -23 -16 -51 -32 -62 -36 -12 -5
-15 -10 -8 -13 26 -10 333 164 333 188 0 5 3 8 8 7 13 -5 102 74 96 84 -3 5 2
18 12 29 10 11 12 19 6 19 -7 0 -12 -5 -12 -11z"/>
<path d="M1415 651 c-3 -5 0 -13 6 -17 7 -4 9 -3 5 4 -3 5 0 13 6 15 9 4 10 6
1 6 -6 1 -14 -3 -18 -8z"/>
<path d="M1377 631 c-18 -7 -18 -7 0 -21 10 -8 15 -10 11 -6 -4 5 -3 15 3 23
13 14 12 15 -14 4z"/>
<path d="M1311 609 c-13 -5 -29 -17 -36 -25 -8 -11 -32 -17 -78 -19 -88 -5
-123 -13 -139 -33 -8 -10 -9 -13 -1 -9 6 4 14 3 18 -3 4 -6 10 -8 14 -6 4 3
34 7 67 10 57 4 142 31 194 61 18 10 20 14 8 15 -9 0 -18 4 -20 9 -2 5 -13 5
-27 0z"/>
<path d="M1246 592 c-3 -5 1 -9 9 -9 8 0 15 4 15 9 0 4 -4 8 -9 8 -6 0 -12 -4
-15 -8z"/>
<path d="M2051 534 c0 -11 3 -14 6 -6 3 7 2 16 -1 19 -3 4 -6 -2 -5 -13z"/>
<path d="M2220 521 c0 -5 7 -11 14 -14 10 -4 13 -1 9 9 -6 15 -23 19 -23 5z"/>
<path d="M2170 489 c0 -5 5 -7 10 -4 6 3 10 8 10 11 0 2 -4 4 -10 4 -5 0 -10
-5 -10 -11z"/>
<path d="M1310 450 c-8 -5 -10 -10 -5 -10 6 0 17 5 25 10 8 5 11 10 5 10 -5 0
-17 -5 -25 -10z"/>
<path d="M1260 430 c-9 -6 -10 -10 -3 -10 6 0 15 5 18 10 8 12 4 12 -15 0z"/>
<path d="M2385 269 c-27 -16 -67 -34 -87 -41 -21 -6 -38 -15 -38 -20 0 -5 -4
-6 -10 -3 -5 3 -18 1 -27 -4 -17 -10 -17 -10 0 -11 9 0 17 -8 18 -17 0 -15 2
-15 9 2 5 11 9 14 9 8 1 -7 6 -13 12 -13 5 0 7 5 4 10 -3 6 -4 10 0 10 3 0 10
-10 15 -22 9 -21 10 -21 9 -3 -2 36 1 38 24 14 33 -35 47 -35 37 1 -6 20 -5
30 5 34 9 3 11 -2 8 -17 l-6 -22 21 21 c11 12 34 28 51 35 24 11 31 20 31 41
0 36 -20 36 -85 -3z"/>
<path d="M2451 214 c0 -11 3 -14 6 -6 3 7 2 16 -1 19 -3 4 -6 -2 -5 -13z"/>
<path d="M2181 184 c0 -11 3 -14 6 -6 3 7 2 16 -1 19 -3 4 -6 -2 -5 -13z"/>
<path d="M2795 100 c-11 -16 -26 -30 -32 -30 -7 0 -13 -4 -13 -10 0 -5 -7 -10
-15 -10 -8 0 -15 5 -15 10 0 22 -22 8 -32 -22 -11 -30 -12 -30 -26 -12 -14 18
-14 18 -8 1 3 -10 6 -21 6 -23 0 -2 36 -4 80 -4 l80 0 0 65 c0 36 -1 65 -2 65
-2 0 -12 -14 -23 -30z"/>
</g>
</svg>
